# xmcd CD database file
#
# Track frame offsets:
#	150
#	21590
#	33330
#	45490
#	56017
#	69845
#	85370
#	100367
#	120804
#	132360
#	141322
#	156030
#	167160
#	177107
#	208417
#	229887
#	253067
#	272572
#	284015
#
# Disc length: 4163 seconds
#
# Revision: 1
# Processed by: cddbd v1.5.2PL0 Copyright (c) Steve Scherf et al.
# Submitted via: CDex 1.70beta2
#
DISCID=18104113
DTITLE=Various Artist - König der Löwen
DYEAR=2003
DGENRE=Soundtrack
TTITLE0=Der ewige Kreis
TTITLE1=Grasland Chant
TTITLE2=Der Morgenreport
TTITLE3=Jagd der Löwinnen
TTITLE4=Ich will jetzt gleich König sein
TTITLE5=Putz weg
TTITLE6=Sie leben hier
TTITLE7=Seid bereit
TTITLE8=Die Schlucht
TTITLE9=Rafikis Totenklage
TTITLE10=Hakuna Matata
TTITLE11=One By One
TTITLE12=Der Wahnsinn von König Scar
TTITLE13=Schattenland
TTITLE14=Endlose Nacht
TTITLE15=Kann es wirklich Liebe sein
TTITLE16=Er lebt in dir
TTITLE17=Kampf um den Königsfelsen
TTITLE18=Der König kehrt zurück
EXTD=YEAR: 2003
EXTT0=
EXTT1=
EXTT2=
EXTT3=
EXTT4=
EXTT5=
EXTT6=
EXTT7=
EXTT8=
EXTT9=
EXTT10=
EXTT11=
EXTT12=
EXTT13=
EXTT14=
EXTT15=
EXTT16=
EXTT17=
EXTT18=
PLAYORDER=
